{
    "asset" : {
        "generator" : "Khronos glTF Blender I/O v1.5.17",
        "version" : "2.0"
    },
    "scene" : 0,
    "scenes" : [
        {
            "name" : "Scene",
            "nodes" : [
                4,
                5,
                6,
                7,
                8,
                9
            ]
        }
    ],
    "nodes" : [
        {
            "mesh" : 0,
            "name" : "Object_2"
        },
        {
            "mesh" : 1,
            "name" : "Object_3"
        },
        {
            "mesh" : 2,
            "name" : "Object_4"
        },
        {
            "children" : [
                0,
                1,
                2
            ],
            "name" : "23e163cb071a4779bb99901ebdb4e557.obj.cleaner.materialmerger.gle"
        },
        {
            "children" : [
                3
            ],
            "name" : "Sketchfab_model",
            "rotation" : [
                -0.7071068286895752,
                0,
                0,
                0.7071068286895752
            ]
        },
        {
            "name" : "Light.001",
            "rotation" : [
                0.16907575726509094,
                0.7558803558349609,
                -0.27217137813568115,
                0.570947527885437
            ],
            "translation" : [
                4.076245307922363,
                5.903861999511719,
                -1.0054539442062378
            ]
        },
        {
            "name" : "Camera.001",
            "rotation" : [
                0.483536034822464,
                0.33687159419059753,
                -0.20870360732078552,
                0.7804827094078064
            ],
            "translation" : [
                7.358891487121582,
                4.958309173583984,
                6.925790786743164
            ]
        },
        {
            "mesh" : 3,
            "name" : "Cylinder",
            "rotation" : [
                0,
                0,
                0.6634722352027893,
                0.7482008934020996
            ],
            "translation" : [
                0.34670448303222656,
                20.793909072875977,
                4.714846611022949
            ]
        },
        {
            "name" : "Light",
            "rotation" : [
                0.16907575726509094,
                0.7558803558349609,
                -0.27217137813568115,
                0.570947527885437
            ],
            "translation" : [
                4.076245307922363,
                5.903861999511719,
                -1.0054539442062378
            ]
        },
        {
            "name" : "Camera",
            "rotation" : [
                0.483536034822464,
                0.33687159419059753,
                -0.20870360732078552,
                0.7804827094078064
            ],
            "translation" : [
                7.358891487121582,
                4.958309173583984,
                6.925790786743164
            ]
        }
    ],
    "materials" : [
        {
            "doubleSided" : true,
            "name" : "Brown_Cardboard_material5",
            "pbrMetallicRoughness" : {
                "metallicFactor" : 0,
                "roughnessFactor" : 0.6000000238418579
            }
        },
        {
            "doubleSided" : true,
            "name" : "Brown_Cardboard_material6",
            "pbrMetallicRoughness" : {
                "metallicFactor" : 0,
                "roughnessFactor" : 0.6000000238418579
            }
        },
        {
            "doubleSided" : true,
            "name" : "paper_cardboard_material8",
            "pbrMetallicRoughness" : {
                "metallicFactor" : 0,
                "roughnessFactor" : 0.6000000238418579
            }
        },
        {
            "doubleSided" : true,
            "name" : "texturaCircle",
            "pbrMetallicRoughness" : {
                "baseColorTexture" : {
                    "index" : 0
                },
                "metallicFactor" : 0,
                "roughnessFactor" : 0.5
            }
        }
    ],
    "meshes" : [
        {
            "name" : "Object_0",
            "primitives" : [
                {
                    "attributes" : {
                        "POSITION" : 0,
                        "NORMAL" : 1,
                        "TEXCOORD_0" : 2
                    },
                    "indices" : 3,
                    "material" : 0
                }
            ]
        },
        {
            "name" : "Object_1",
            "primitives" : [
                {
                    "attributes" : {
                        "POSITION" : 4,
                        "NORMAL" : 5,
                        "TEXCOORD_0" : 6
                    },
                    "indices" : 3,
                    "material" : 1
                }
            ]
        },
        {
            "name" : "Object_2",
            "primitives" : [
                {
                    "attributes" : {
                        "POSITION" : 7,
                        "NORMAL" : 8,
                        "TEXCOORD_0" : 9
                    },
                    "indices" : 10,
                    "material" : 2
                }
            ]
        },
        {
            "name" : "Cylinder",
            "primitives" : [
                {
                    "attributes" : {
                        "POSITION" : 11,
                        "NORMAL" : 12,
                        "TEXCOORD_0" : 13
                    },
                    "indices" : 14,
                    "material" : 3
                }
            ]
        }
    ],
    "textures" : [
        {
            "sampler" : 0,
            "source" : 0
        }
    ],
    "images" : [
        {
            "mimeType" : "image/png",
            "name" : "stickers",
            "uri" : "Cylinder.png"
        }
    ],
    "accessors" : [
        {
            "bufferView" : 0,
            "componentType" : 5126,
            "count" : 511,
            "max" : [
                5.995649814605713,
                -3.57135009765625,
                38.258079528808594
            ],
            "min" : [
                -6.071410179138184,
                -5.000629901885986,
                27.61717987060547
            ],
            "type" : "VEC3"
        },
        {
            "bufferView" : 1,
            "componentType" : 5126,
            "count" : 511,
            "type" : "VEC3"
        },
        {
            "bufferView" : 2,
            "componentType" : 5126,
            "count" : 511,
            "type" : "VEC2"
        },
        {
            "bufferView" : 3,
            "componentType" : 5123,
            "count" : 2832,
            "type" : "SCALAR"
        },
        {
            "bufferView" : 4,
            "componentType" : 5126,
            "count" : 511,
            "max" : [
                5.994649887084961,
                4.1461100578308105,
                38.237770080566406
            ],
            "min" : [
                -6.0760498046875,
                2.3089098930358887,
                27.616899490356445
            ],
            "type" : "VEC3"
        },
        {
            "bufferView" : 5,
            "componentType" : 5126,
            "count" : 511,
            "type" : "VEC3"
        },
        {
            "bufferView" : 6,
            "componentType" : 5126,
            "count" : 511,
            "type" : "VEC2"
        },
        {
            "bufferView" : 7,
            "componentType" : 5126,
            "count" : 914,
            "max" : [
                10.999259948730469,
                5.0594401359558105,
                32.055660247802734
            ],
            "min" : [
                -11.40425968170166,
                -5.178730010986328,
                0
            ],
            "type" : "VEC3"
        },
        {
            "bufferView" : 8,
            "componentType" : 5126,
            "count" : 914,
            "type" : "VEC3"
        },
        {
            "bufferView" : 9,
            "componentType" : 5126,
            "count" : 914,
            "type" : "VEC2"
        },
        {
            "bufferView" : 10,
            "componentType" : 5123,
            "count" : 4788,
            "type" : "SCALAR"
        },
        {
            "bufferView" : 11,
            "componentType" : 5126,
            "count" : 335,
            "max" : [
                6.934837818145752,
                6.934833526611328,
                0.04259777069091797
            ],
            "min" : [
                -6.934841632843018,
                -6.934844970703125,
                -0.04259777069091797
            ],
            "type" : "VEC3"
        },
        {
            "bufferView" : 12,
            "componentType" : 5126,
            "count" : 335,
            "type" : "VEC3"
        },
        {
            "bufferView" : 13,
            "componentType" : 5126,
            "count" : 335,
            "type" : "VEC2"
        },
        {
            "bufferView" : 14,
            "componentType" : 5123,
            "count" : 372,
            "type" : "SCALAR"
        }
    ],
    "bufferViews" : [
        {
            "buffer" : 0,
            "byteLength" : 6132,
            "byteOffset" : 0
        },
        {
            "buffer" : 0,
            "byteLength" : 6132,
            "byteOffset" : 6132
        },
        {
            "buffer" : 0,
            "byteLength" : 4088,
            "byteOffset" : 12264
        },
        {
            "buffer" : 0,
            "byteLength" : 5664,
            "byteOffset" : 16352
        },
        {
            "buffer" : 0,
            "byteLength" : 6132,
            "byteOffset" : 22016
        },
        {
            "buffer" : 0,
            "byteLength" : 6132,
            "byteOffset" : 28148
        },
        {
            "buffer" : 0,
            "byteLength" : 4088,
            "byteOffset" : 34280
        },
        {
            "buffer" : 0,
            "byteLength" : 10968,
            "byteOffset" : 38368
        },
        {
            "buffer" : 0,
            "byteLength" : 10968,
            "byteOffset" : 49336
        },
        {
            "buffer" : 0,
            "byteLength" : 7312,
            "byteOffset" : 60304
        },
        {
            "buffer" : 0,
            "byteLength" : 9576,
            "byteOffset" : 67616
        },
        {
            "buffer" : 0,
            "byteLength" : 4020,
            "byteOffset" : 77192
        },
        {
            "buffer" : 0,
            "byteLength" : 4020,
            "byteOffset" : 81212
        },
        {
            "buffer" : 0,
            "byteLength" : 2680,
            "byteOffset" : 85232
        },
        {
            "buffer" : 0,
            "byteLength" : 744,
            "byteOffset" : 87912
        }
    ],
    "samplers" : [
        {
            "magFilter" : 9729,
            "minFilter" : 9987
        }
    ],
    "buffers" : [
        {
            "byteLength" : 88656,
            "uri" : "sticker.bin"
        }
    ]
}
